{"title":"Baaghi (2016) DvDRip XviD AC3 5.1 ESub -DDR 8th Anniversary","uid":15086723,"size":1505942140,"categoryP":"video","categoryS":"movies","magnet":"?xt=urn:btih:61b2394a40bd69ebe212f1a097d0b3453e68169b&amp;dn=Baaghi+%282016%29+DvDRip+XviD+AC3+5.1+ESub+-DDR+8th+Anniversary&amp;tr=udp%3A%2F%2Ftracker.leechers-paradise.org%3A6969&amp;tr=udp%3A%2F%2Fzer0day.ch%3A1337&amp;tr=udp%3A%2F%2Fopen.demonii.com%3A1337&amp;tr=udp%3A%2F%2Ftracker.coppersurfer.tk%3A6969&amp;tr=udp%3A%2F%2Fexodus.desync.com%3A6969","seeders":1,"leechers":0,"uploader":"SaM","files":3,"time":1466889330,"description":"- BollywooD MoviE -\r\n**- Baaghi -**\r\n- 2016 -\r\n** 1/3 DvD / XviD / AC3 5.1 **\r\nEnglish subtitle(s)\r\n\r\n ~* SCREENSHOTS *~\r\n \nhttp://extraimago.com/image/agtW \nhttp://extraimago.com/image/agtf \nhttp://extraimago.com/image/agx8 \nhttp://extraimago.com/image/agxa \nhttp://extraimago.com/image/agxw \nhttp://extraimago.com/image/agx2 \nhttp://extraimago.com/image/agxN \nhttp://extraimago.com/image/agxT \nhttp://extraimago.com/image/agxj \nhttp://extraimago.com/image/agxn \nhttp://extraimago.com/image/agxs \nhttp://extraimago.com/image/agx7 \nhttp://extraimago.com/image/agxc \nhttp://extraimago.com/image/agx1 \nhttp://extraimago.com/image/agxE \nhttp://extraimago.com/image/agx1\r\n\r\n[ Specs ]\r\nGeneral\r\nSource = DVD9 @ DDR\r\nFormat : AVI\r\nFile size : 1.37 GiB\r\nDuration : 2h 14mn\r\nOverall bit rate : 1 461 Kbps\r\n\r\nVideo\r\nFormat : MPEG-4 Visual\r\nFormat profile : Advanced   \r\nFormat settings, BVOP : 2\r\nFormat settings, QPel : No\r\nFormat settings, GMC : No warppoints\r\nFormat settings, Matrix : Custom\r\nCodec ID : XVID\r\nDuration : 2h 3mn\r\nBit rate : 1 383 Kbps\r\nBit rate : 1 200 Kbps\r\nWidth : 720 pixels\r\nHeight : 304 pixels\r\nDisplay aspect ratio : 2.35:1\r\nFrame rate : 23.976 (24000/1001) fps\r\nColor space : YUV\r\nChroma subsampling : 4:2:0\r\nBit depth : 8 bits\r\nScan type : Progressive\r\nCompression mode : Lossy\r\nBits/(Pixel*Frame) : 0.264\r\nStream size : 1.19 GiB (84%)\r\nWriting library : XviD 67\r\n\r\nAudio #1\r\nFormat : AC-3\r\nFormat/Info : Audio Coding 3\r\nMode extension : CM (complete main)\r\nFormat settings, Endianness : Big\r\nCodec ID : 2000\r\nDuration : 2h 14mn\r\nBit rate mode : Constant\r\nBit rate : 256 Kbps\r\nChannel(s) : 6 channels\r\nChannel positions : Front: L C R, Side: L R, LFE\r\nSampling rate : 48.0 KHz\r\nFrame rate : 31.250 fps (1536 spf)\r\nCompression mode : Lossy\r\nStream size : 246 MiB (18%)\r\n\r\nChapters: N/A\r\nSample: YES - included\r\n\r\nA DDR 8th Anniversary Exclusive Release...!","torrent":{"xt":"urn:btih:61b2394a40bd69ebe212f1a097d0b3453e68169b","amp;dn":"Baaghi+%282016%29+DvDRip+XviD+AC3+5.1+ESub+-DDR+8th+Anniversary","amp;tr":["udp%3A%2F%2Ftracker.leechers-paradise.org%3A6969","udp%3A%2F%2Fzer0day.ch%3A1337","udp%3A%2F%2Fopen.demonii.com%3A1337","udp%3A%2F%2Ftracker.coppersurfer.tk%3A6969","udp%3A%2F%2Fexodus.desync.com%3A6969"],"infoHash":"61b2394a40bd69ebe212f1a097d0b3453e68169b","infoHashBuffer":{"type":"Buffer","data":[97,178,57,74,64,189,105,235,226,18,241,160,151,208,179,69,62,104,22,155]},"announce":[],"urlList":[]}}